<?xml version="1.0" encoding="utf-8"?>
<!-- Generator: Adobe Illustrator 19.2.1, SVG Export Plug-In . SVG Version: 6.00 Build 0)  -->
<svg version="1.1" id="Layer_1" xmlns="http://www.w3.org/2000/svg" xmlns:xlink="http://www.w3.org/1999/xlink" x="0px" y="0px"
	 viewBox="0 0 64 64" style="enable-background:new 0 0 64 64;" xml:space="preserve">
<style type="text/css">
	.st0{fill:url(#SVGID_1_);}
	.st1{font-family:'ArialMT';}
	.st2{font-size:7px;}
	.st3{fill:#101111;}
	.st4{fill:url(#SVGID_2_);}
	.st5{fill:url(#SVGID_3_);}
	.st6{fill:url(#SVGID_4_);}
	.st7{fill:none;}
	.st8{fill:url(#SVGID_5_);}
	.st9{fill:#AEADAD;}
	.st10{fill:#FEDB31;}
	.st11{fill:#E2E2E0;}
	.st12{fill:#79797B;}
</style>
<g>
	<g>
		<linearGradient id="SVGID_1_" gradientUnits="userSpaceOnUse" x1="0" y1="32" x2="64" y2="32">
			<stop  offset="0" style="stop-color:#777779"/>
			<stop  offset="5.122145e-002" style="stop-color:#868687"/>
			<stop  offset="0.1782" style="stop-color:#ACABAC"/>
			<stop  offset="0.292" style="stop-color:#CBCACC"/>
			<stop  offset="0.3872" style="stop-color:#E1E1E2"/>
			<stop  offset="0.4523" style="stop-color:#EBEBEC"/>
			<stop  offset="0.5529" style="stop-color:#BBBCBE"/>
			<stop  offset="0.8209" style="stop-color:#D3D4D5"/>
			<stop  offset="1" style="stop-color:#E0E0E1"/>
		</linearGradient>
		<path class="st0" d="M63.1,32.9c0.3-0.5,0.6-0.9,0.7-1.2c0.5-1.1,0.1-2.1-0.9-3c-0.1-0.1-0.2-0.2-0.4-0.3c0.3-0.7,0.6-1.2,0.7-1.6
			c0.3-1.3-0.4-2-1.2-2.5c-0.2-0.1-0.4-0.2-0.6-0.3c0.1-0.2,0.1-0.5,0.2-0.7c0.1-0.2,0.1-0.4,0.2-0.6c0.2-0.6,0.3-1.1,0.3-1.4
			c0-1.7-1.2-2.3-2.3-2.6c0.1-0.7,0.2-1.4,0.2-1.7c-0.3-1.6-1.6-1.9-2.7-2.1c0-0.4-0.1-0.8-0.1-1.1c0-0.7-0.1-1.3-0.2-1.6
			c-0.5-1.6-1.8-1.8-2.8-1.8c-0.1,0-0.1,0-0.2,0c-0.1-0.7-0.3-1.3-0.4-1.6c-0.7-1.5-2.1-1.3-3.2-1.1c-0.2-0.4-0.3-0.8-0.5-1.1
			c-0.2-0.6-0.5-1.1-0.7-1.4c-0.5-0.7-1.1-1-1.9-1c-0.3,0-0.7,0.1-1.1,0.2c-0.2,0-0.3,0.1-0.4,0.2c-0.4-0.6-0.7-1.2-0.9-1.4
			c-0.9-0.9-2-0.7-2.8-0.3c-0.2,0.1-0.4,0.2-0.6,0.3c-0.3-0.3-0.5-0.6-0.8-0.9c-0.4-0.5-0.8-0.9-1.1-1.1c-1-0.6-2-0.6-3.1,0.2
			c-0.1,0.1-0.2,0.2-0.4,0.3c-0.6-0.5-1-0.9-1.4-1c-1.2-0.5-2.1-0.1-2.8,0.6c-0.2,0.2-0.3,0.3-0.5,0.5c-0.3-0.2-0.7-0.4-1-0.6
			c-0.6-0.4-1.1-0.7-1.5-0.7c-1.2-0.3-2.2,0.1-2.9,1.2C26,1.4,26,1.6,25.9,1.7c-0.7-0.3-1.3-0.5-1.6-0.5c-1.3-0.2-2,0.6-2.4,1.4
			c-0.1,0.2-0.2,0.4-0.3,0.6c-0.4-0.1-0.8-0.1-1.2-0.2c-0.6-0.1-1.1-0.2-1.5-0.2h-0.1c-1.7,0.1-2.2,1.6-2.3,2c0,0.2-0.1,0.3-0.1,0.4
			c-0.7,0-1.3-0.1-1.7,0c-1.3,0.2-1.7,1.3-1.8,2.2c0,0.2,0,0.5-0.1,0.7c-0.4,0.1-0.8,0.1-1.1,0.2c-0.7,0.1-1.3,0.2-1.6,0.3
			c-1.6,0.7-1.6,2-1.5,3.1c-0.7,0.2-1.3,0.4-1.6,0.6c-1.4,0.9-1.2,2.2-0.9,3.3c-0.1,0.1-0.3,0.2-0.4,0.2l-0.2,0.1
			c-0.2,0.1-0.4,0.2-0.6,0.3c-0.5,0.3-1,0.5-1.2,0.7C2.3,18,2.9,19.5,3.1,20c0.1,0.1,0.1,0.3,0.2,0.4c-0.6,0.4-1.1,0.8-1.3,1.1
			c-0.9,1-0.6,2-0.1,2.8c0.1,0.2,0.2,0.4,0.4,0.5c-0.3,0.4-0.6,0.7-0.9,1c-0.4,0.4-0.8,0.8-1,1.1c-0.8,1.5,0,2.6,0.8,3.4
			c-0.4,0.6-0.8,1.1-0.9,1.4c-0.5,1.5,0.4,2.4,1.3,3.1c-0.2,0.4-0.3,0.7-0.5,1c-0.3,0.7-0.6,1.2-0.6,1.5c-0.3,1.7,0.8,2.5,1.8,3
			C2,41.1,1.8,41.7,1.8,42c-0.1,1.6,1.2,2.2,2.3,2.5c0,0.2,0,0.4,0,0.5l0,0.2c0,0.2,0,0.4-0.1,0.6c-0.1,0.6-0.1,1.1-0.1,1.4
			c0.2,1.7,1.7,2.1,2.2,2.2c0.2,0,0.3,0,0.5,0.1c0,0.7,0.1,1.3,0.2,1.7c0.3,1.3,1.4,1.6,2.3,1.6c0.2,0,0.4,0,0.6,0
			c0.1,0.4,0.2,0.8,0.3,1.2c0.1,0.7,0.3,1.2,0.4,1.5c0.6,1,1.5,1.5,2.8,1.3c0.2,0,0.3-0.1,0.5-0.1c0.3,0.7,0.5,1.2,0.7,1.5
			c0.8,1,1.8,1,2.7,0.8c0.2-0.1,0.4-0.1,0.6-0.2c0.1,0.2,0.3,0.4,0.4,0.6c0.5,0.8,0.9,1.4,1.2,1.7c0.5,0.5,1,0.7,1.6,0.7
			c0.5,0,1-0.1,1.5-0.4c0.2-0.1,0.3-0.2,0.4-0.2c0.5,0.6,0.9,1,1.2,1.2c0.5,0.4,1,0.5,1.5,0.5c0.5-0.1,0.9-0.3,1.3-0.6
			c0.2-0.1,0.3-0.3,0.5-0.4c0.3,0.3,0.7,0.5,1,0.8c0.5,0.4,0.9,0.8,1.2,0.9c0.4,0.2,0.7,0.3,1.1,0.3c0.9,0,1.5-0.5,2-1
			c0.1-0.1,0.2-0.2,0.3-0.4c0.6,0.4,1.1,0.7,1.5,0.8c1.2,0.4,2.1-0.3,2.6-1c0.1-0.2,0.2-0.3,0.3-0.5c0.4,0.1,0.8,0.3,1.2,0.4
			c0.6,0.2,1.1,0.4,1.5,0.5c1.2,0.1,2-0.5,2.7-1.6c0.1-0.2,0.1-0.3,0.2-0.5c0.7,0.1,1.3,0.3,1.7,0.3c1.3-0.1,1.9-0.9,2.2-1.8
			c0.1-0.2,0.1-0.4,0.1-0.6c0.2,0,0.5,0,0.7,0c0.3,0,0.7,0,1,0c0.5,0,0.9,0,1.1-0.1c1.2-0.2,1.8-1,2-2.4c0-0.2,0-0.3,0-0.5
			c0.7-0.1,1.4-0.2,1.7-0.3c1.2-0.4,1.5-1.5,1.4-2.4c0-0.2,0-0.4-0.1-0.6c0.2-0.1,0.5-0.2,0.7-0.2c0.2-0.1,0.4-0.1,0.6-0.2
			c0.6-0.2,1.1-0.3,1.4-0.5c1.4-0.9,1.2-2.3,1-3.4c0.7-0.3,1.2-0.6,1.5-0.8c1.2-1.1,0.8-2.3,0.3-3.4c0.3-0.2,0.6-0.5,0.9-0.7
			c0.6-0.4,1.1-0.7,1.2-1c1.1-1.3,0.5-2.6-0.2-3.5c0.5-0.5,1-0.9,1.1-1.3c0.8-1.4,0-2.5-0.8-3.3c0.1-0.2,0.3-0.4,0.4-0.6
			C62.9,33.2,63,33,63.1,32.9 M2.4,39.9c-0.9-0.5-1.7-1.1-1.5-2.4c0-0.3,0.3-0.8,0.6-1.4c0.1-0.3,0.3-0.6,0.4-0.9
			c0.2,0.1,0.4,0.3,0.5,0.4c0.1,0.8,0.2,1.6,0.4,2.4C2.8,38.6,2.6,39.3,2.4,39.9 M2.4,28.1c-0.3,0.6-0.7,1.2-1.1,1.8
			c-0.7-0.7-1.2-1.6-0.6-2.8c0.2-0.2,0.5-0.6,0.9-1c0.3-0.3,0.6-0.6,0.8-0.9c0.1,0.2,0.2,0.4,0.3,0.5C2.7,26.5,2.5,27.3,2.4,28.1
			 M56.5,12.3c0.1,0.3,0.1,0.8,0.2,1.5c0,0.3,0,0.7,0.1,1c-0.2,0-0.5-0.1-0.7-0.1c-0.4-0.6-0.9-1.2-1.4-1.8c-0.3-0.6-0.5-1.3-0.6-2
			C55,10.8,56,11,56.5,12.3 M46.3,4.7c1.2-0.3,1.9-0.1,2.5,0.7c0.2,0.2,0.4,0.7,0.6,1.3c0.1,0.3,0.3,0.7,0.4,1
			c-0.2,0-0.5,0.1-0.6,0.1c-0.6-0.4-1.3-0.9-1.9-1.2C46.8,6,46.3,5.4,46,4.8C46.1,4.8,46.2,4.7,46.3,4.7 M36.7,1.5
			c0.9-0.6,1.7-0.7,2.5-0.1c0.2,0.1,0.6,0.6,1,1c0.2,0.3,0.5,0.5,0.7,0.8c-0.2,0.1-0.4,0.2-0.5,0.3C39.6,3.2,38.8,3,38,2.9
			c-0.6-0.3-1.1-0.7-1.7-1.2C36.5,1.6,36.6,1.6,36.7,1.5 M26.5,1.6c0.5-0.7,1-1.1,1.7-1.1c0.2,0,0.4,0,0.7,0.1
			c0.3,0.1,0.8,0.4,1.3,0.7c0.3,0.2,0.6,0.3,0.9,0.5C31,2,30.8,2.2,30.7,2.3c-0.8,0-1.6,0.1-2.3,0.2c-0.7-0.1-1.4-0.3-2-0.6
			C26.4,1.8,26.5,1.7,26.5,1.6 M17,5c0.4-1.1,1-1.7,1.9-1.7c0.3,0,0.8,0.1,1.4,0.2c0.3,0.1,0.7,0.1,1.1,0.2
			c-0.1,0.2-0.2,0.4-0.3,0.6c-0.7,0.3-1.4,0.6-2.1,0.9c-0.7,0.1-1.4,0.1-2.1,0.1C16.9,5.2,16.9,5.1,17,5 M10.3,9.1
			c0.2-0.1,0.8-0.2,1.5-0.3c0.3,0,0.7-0.1,1-0.1c0,0.2,0,0.4,0,0.6c-0.6,0.5-1.2,1-1.8,1.6c-0.6,0.3-1.3,0.6-1.9,0.8
			C8.9,10.6,9,9.6,10.3,9.1 M3.7,20.1c0-0.1-0.1-0.2-0.1-0.3c-0.4-1.1-0.3-1.9,0.5-2.5c0.2-0.2,0.6-0.4,1.1-0.7
			c0.2-0.1,0.4-0.2,0.6-0.3l0.2-0.1c0.1-0.1,0.2-0.1,0.3-0.2c0.1,0.2,0.1,0.5,0.2,0.6c-0.4,0.7-0.8,1.3-1.1,2
			C4.9,19.3,4.2,19.7,3.7,20.1 M6.3,49c-1.2-0.3-1.8-0.8-1.8-1.7c0-0.3,0-0.8,0.1-1.3c0-0.2,0-0.4,0.1-0.6l0-0.2c0-0.1,0-0.3,0-0.4
			c0.2,0.1,0.5,0.1,0.6,0.2c0.3,0.7,0.7,1.4,1.1,2c0.2,0.7,0.2,1.4,0.3,2.1C6.5,49,6.4,49,6.3,49 M13.2,56.4c-0.1,0-0.3,0-0.4,0
			c-0.9,0-1.5-0.4-1.9-1.1c-0.1-0.3-0.2-0.8-0.4-1.4c-0.1-0.3-0.2-0.7-0.3-1.1c0.2,0,0.5,0,0.6,0c0.6,0.5,1.1,1.1,1.7,1.6
			c0.4,0.6,0.7,1.3,1,1.9C13.4,56.3,13.3,56.4,13.2,56.4 M22.2,61.1c-0.5,0.2-0.9,0.4-1.3,0.4c-0.5,0-0.9-0.2-1.3-0.6
			c-0.3-0.2-0.6-0.9-1.1-1.6c-0.1-0.2-0.2-0.4-0.3-0.5c0.2-0.1,0.5-0.2,0.6-0.2c0.7,0.3,1.4,0.7,2.1,0.9c0.6,0.4,1,0.9,1.5,1.5
			C22.4,61,22.3,61,22.2,61.1 M32.2,62.6c-0.4,0.4-0.9,0.8-1.6,0.8c-0.3,0-0.6-0.1-0.8-0.2c-0.3-0.1-0.7-0.5-1.2-0.9
			c-0.3-0.2-0.6-0.5-0.9-0.7c0.2-0.2,0.4-0.3,0.5-0.4c0.8,0.1,1.5,0.1,2.3,0.2c0.6,0.2,1.3,0.6,1.9,0.9
			C32.3,62.5,32.3,62.6,32.2,62.6 M42.2,60.9c-0.5,0.9-1.1,1.4-2,1.4c-0.1,0-0.1,0-0.2,0c-0.3,0-0.8-0.2-1.3-0.4
			c-0.3-0.1-0.7-0.3-1.1-0.4c0.1-0.2,0.2-0.4,0.4-0.5c0.8-0.2,1.5-0.4,2.3-0.6c0.7,0,1.4,0.1,2.1,0.2C42.3,60.7,42.2,60.8,42.2,60.9
			 M31.9,58.3c-7.5,0-14.3-3.2-19.1-8.2h1.8c3.6,3.4,8.2,5.8,13.5,6.6c1.2,0.2,2.5,0.3,3.8,0.3c6.6,0,12.7-2.6,17.2-6.9H51
			C46.2,55.1,39.4,58.3,31.9,58.3 M48.4,50.1c-4.4,4-10.2,6.4-16.5,6.4c-1.2,0-2.5-0.1-3.7-0.3c-5-0.8-9.4-3-12.9-6.1H48.4z M51,56
			c-0.1,1.1-0.6,1.8-1.6,2c-0.2,0.1-0.7,0.1-1,0.1c-0.3,0-0.6,0-0.9,0c-0.2,0-0.4,0-0.6,0c0-0.2,0.1-0.5,0.2-0.7
			c0.6-0.4,1.3-0.8,1.9-1.2c0.6-0.3,1.4-0.4,2.1-0.5C51.1,55.7,51.1,55.9,51,56 M7.5,35.4c-0.3-2.3-0.4-4.7,0-7.2
			C9.3,16.3,19.8,7.3,31.9,7.3c1.2,0,2.5,0.1,3.7,0.3c6.5,1,12.2,4.4,16.1,9.7c3.9,5.2,5.5,11.7,4.6,18.1H7.5z M57,50.9
			c-0.2,0.1-0.7,0.3-1.2,0.4c-0.2,0.1-0.4,0.1-0.6,0.2c-0.2,0.1-0.4,0.1-0.6,0.2c0-0.2-0.1-0.5-0.1-0.7c0.5-0.6,0.9-1.2,1.4-1.8
			c0.3-0.2,0.6-0.4,0.9-0.6c0.3-0.2,0.6-0.4,1-0.5C58,49.1,58.1,50.1,57,50.9 M58.1,35.4h-1.3c0.9-6.5-0.7-13.1-4.7-18.4
			c-4-5.4-9.8-8.9-16.5-9.9c-1.2-0.2-2.5-0.3-3.8-0.3C19.5,6.8,8.9,16,7,28.2c-0.4,2.5-0.4,4.9,0,7.2H5.7c-0.2-1.2-0.3-2.3-0.3-3.5
			c0-14.6,11.9-26.4,26.4-26.4c14.6,0,26.4,11.8,26.4,26.4C58.3,33.1,58.2,34.2,58.1,35.4 M59.7,19.1c0.9,0.3,1.9,0.8,1.9,2.1
			c0,0.3-0.2,0.8-0.3,1.3c-0.1,0.2-0.1,0.4-0.2,0.7c0,0.2-0.1,0.3-0.1,0.5c-0.2-0.1-0.4-0.2-0.6-0.3c-0.2-0.7-0.5-1.4-0.7-2.1
			C59.5,20.6,59.6,19.9,59.7,19.1 M61.8,41.7c-0.2,0.2-0.6,0.6-1.1,0.9c-0.3,0.2-0.5,0.4-0.8,0.6c-0.1-0.2-0.2-0.4-0.3-0.6
			c0.3-0.7,0.6-1.4,0.8-2.2c0.3-0.6,0.8-1.1,1.3-1.6C62.2,39.7,62.6,40.6,61.8,41.7 M62.3,33.1c-0.1,0.2-0.2,0.3-0.3,0.5
			c-0.2-0.2-0.3-0.3-0.5-0.5c0-0.4,0.1-0.8,0.1-1.2c0-0.4,0-0.7-0.1-1.1c0.1-0.6,0.4-1.3,0.7-1.9c0.1,0.1,0.2,0.1,0.3,0.2
			c0.9,0.7,1.1,1.5,0.8,2.4c-0.1,0.2-0.4,0.6-0.7,1.1C62.6,32.7,62.4,32.9,62.3,33.1"/>
		<g>
			<text transform="matrix(0.993 0 0 1 15.7485 45.7617)" class="st1 st2">Discoverer</text>
		</g>
	</g>
	<path class="st3" d="M29.6,19c0.1,0,0.3,0,0.4,0c0,0,0.1,0,0.1,0c0.1,0,0.2,0,0.2-0.1c0,0,0.1,0,0.1-0.1c0.1,0,0.1-0.1,0.2-0.1
		c0,0,0.1-0.1,0.1-0.1c0.1,0,0.1-0.1,0.2-0.1c0,0,0.1-0.1,0.1-0.1c0-0.1,0.1-0.1,0.1-0.2c0,0,0.1-0.1,0.1-0.1c0-0.1,0.1-0.1,0.1-0.2
		c0,0,0-0.1,0.1-0.2c0-0.1,0-0.1,0.1-0.2c0-0.1,0-0.1,0-0.2c0,0,0,0,0-0.1h0.8c0,0,0,0,0,0.1c0,0.1,0,0.1,0,0.2c0,0.1,0,0.1,0.1,0.2
		c0,0.1,0,0.1,0.1,0.2c0,0.1,0.1,0.1,0.1,0.2c0,0,0.1,0.1,0.1,0.1c0,0.1,0.1,0.1,0.1,0.2c0,0,0.1,0.1,0.1,0.1c0.1,0,0.1,0.1,0.2,0.1
		c0,0,0.1,0.1,0.1,0.1c0.1,0,0.1,0.1,0.2,0.1c0,0,0.1,0,0.1,0.1c0.1,0,0.2,0.1,0.2,0.1c0,0,0.1,0,0.1,0c0.1,0,0.3,0,0.4,0
		c1.1,0,2-0.9,2-2c0-1.1-0.8-2-1.9-2c0,0-0.1,0-0.1,0c0,0,0,0,0,0c0,0,0,0,0,0l-4.6,0l-0.1,0c0,0-0.1,0-0.1,0c-1.1,0-2,0.9-2,2
		C27.6,18.1,28.5,19,29.6,19L29.6,19z M34.1,15.6L34.1,15.6c0.2,0,0.2,0,0.3,0c0.8,0,1.5,0.7,1.5,1.5c0,0.8-0.7,1.5-1.5,1.5
		c-0.8,0-1.5-0.7-1.5-1.5C32.9,16.3,33.4,15.7,34.1,15.6L34.1,15.6z M33,15.5c-0.3,0.3-0.6,0.7-0.6,1.2h-0.9
		c-0.1-0.5-0.3-0.9-0.6-1.2H33z M29.6,15.5c0.8,0,1.5,0.7,1.5,1.5c0,0.8-0.7,1.5-1.5,1.5c-0.8,0-1.5-0.7-1.5-1.5
		C28.1,16.2,28.8,15.5,29.6,15.5L29.6,15.5z M29.6,15.5"/>
	
		<radialGradient id="SVGID_2_" cx="31.5133" cy="18.5014" r="2.6266" gradientTransform="matrix(0.993 0 0 1 0.7062 0)" gradientUnits="userSpaceOnUse">
		<stop  offset="0" style="stop-color:#E2E2E3"/>
		<stop  offset="0.1857" style="stop-color:#DBDBDD"/>
		<stop  offset="0.3535" style="stop-color:#CCCCCE"/>
		<stop  offset="0.5146" style="stop-color:#B6B6B7"/>
		<stop  offset="0.6713" style="stop-color:#99999B"/>
		<stop  offset="0.825" style="stop-color:#777779"/>
		<stop  offset="0.9745" style="stop-color:#535556"/>
		<stop  offset="1" style="stop-color:#4D4F50"/>
	</radialGradient>
	<path class="st4" d="M33.9,18.3c-0.1,0-0.2-0.1-0.3-0.1c0,0-0.1,0-0.1-0.1c-0.1-0.1-0.2-0.1-0.3-0.1c0,0-0.1-0.1-0.1-0.1
		c-0.1-0.1-0.2-0.1-0.2-0.2c0,0-0.1-0.1-0.1-0.1c-0.1-0.1-0.1-0.1-0.2-0.2c0-0.1-0.1-0.1-0.1-0.2c0-0.1-0.1-0.1-0.1-0.2
		c0-0.1-0.1-0.1-0.1-0.2c0-0.1-0.1-0.2-0.1-0.2c0,0,0,0,0,0h-0.4c0,0,0,0,0,0c0,0.1,0,0.2-0.1,0.2c0,0.1,0,0.1-0.1,0.2
		c0,0.1-0.1,0.1-0.1,0.2c0,0.1-0.1,0.1-0.1,0.2c0,0.1-0.1,0.1-0.2,0.2c0,0-0.1,0.1-0.1,0.1c-0.1,0.1-0.1,0.1-0.2,0.2
		C30.9,18,30.8,18,30.8,18c-0.1,0-0.1,0.1-0.2,0.1c-0.1,0-0.1,0.1-0.2,0.1c-0.1,0-0.2,0.1-0.3,0.1c-0.1,0-0.1,0-0.1,0
		c-0.4,0.1-0.8,0-1.2-0.1c0.5,1.2,1.8,2.1,3.2,2.1s2.7-0.9,3.2-2.1c-0.2,0.1-0.5,0.1-0.8,0.1c-0.1,0-0.3,0-0.4,0
		C33.9,18.3,33.9,18.3,33.9,18.3L33.9,18.3z M33.9,18.3"/>
	
		<radialGradient id="SVGID_3_" cx="31.5133" cy="14.1721" r="1.1467" gradientTransform="matrix(0.993 0 0 1 0.7062 0)" gradientUnits="userSpaceOnUse">
		<stop  offset="0" style="stop-color:#E2E2E3"/>
		<stop  offset="0.1857" style="stop-color:#DBDBDD"/>
		<stop  offset="0.3535" style="stop-color:#CCCCCE"/>
		<stop  offset="0.5146" style="stop-color:#B6B6B7"/>
		<stop  offset="0.6713" style="stop-color:#99999B"/>
		<stop  offset="0.825" style="stop-color:#777779"/>
		<stop  offset="0.9745" style="stop-color:#535556"/>
		<stop  offset="1" style="stop-color:#4D4F50"/>
	</radialGradient>
	<path class="st5" d="M32,14c-0.6,0-1.1,0.1-1.6,0.4h3.2C33.1,14.1,32.6,14,32,14L32,14z M32,14"/>
	<linearGradient id="SVGID_4_" gradientUnits="userSpaceOnUse" x1="20.7827" y1="25.1702" x2="43.2173" y2="25.1702">
		<stop  offset="0" style="stop-color:#777779"/>
		<stop  offset="3.797579e-002" style="stop-color:#7F7F81"/>
		<stop  offset="0.2064" style="stop-color:#A4A3A5"/>
		<stop  offset="0.3572" style="stop-color:#C3C2C4"/>
		<stop  offset="0.4834" style="stop-color:#D9D9DA"/>
		<stop  offset="0.5697" style="stop-color:#E2E2E3"/>
		<stop  offset="1" style="stop-color:#707173"/>
	</linearGradient>
	<path class="st6" d="M42.8,17.1l-5.2-2c0,0-1-0.4-1.7-0.2c0.5,0.4,0.7,1,0.7,1.7c0,0.5-0.2,1-0.4,1.3L38,19c-1.6,1.1-2.9,1.8-4,2.9
		c-1.5,1.2-2,4.5-2,4.5c-0.4-2.3-1.9-4.5-1.9-4.5c-1.1-1.1-2.7-2-4.3-3.2l1.9-0.9c-0.2-0.4-0.4-0.8-0.4-1.3c0-0.7,0.3-1.3,0.8-1.7
		c-0.3-0.2-1.6,0.2-1.6,0.2l-5.2,2c-0.3,0.4-0.5,0.8-0.4,1.3c0.1,0.5,0.3,0.9,0.7,1.2c1.1,0.7,3.7,2.6,5.4,3.9l0.1,0.9l0,11l9.5,0
		l0.1-11.3c0,0,0,0,0-0.1c1.5-1.3,4.8-3.7,6-4.5c0.4-0.3,0.6-0.7,0.7-1.2C43.3,17.9,43.1,17.4,42.8,17.1L42.8,17.1z M42.8,17.1"/>
	<rect x="20.6" y="15.1" class="st7" width="22.8" height="40.3"/>
	<linearGradient id="SVGID_5_" gradientUnits="userSpaceOnUse" x1="30.0373" y1="21.2964" x2="33.9627" y2="21.2964">
		<stop  offset="0" style="stop-color:#777779"/>
		<stop  offset="3.797579e-002" style="stop-color:#7F7F81"/>
		<stop  offset="0.2064" style="stop-color:#A4A3A5"/>
		<stop  offset="0.3572" style="stop-color:#C3C2C4"/>
		<stop  offset="0.4834" style="stop-color:#D9D9DA"/>
		<stop  offset="0.5697" style="stop-color:#E2E2E3"/>
		<stop  offset="1" style="stop-color:#707173"/>
	</linearGradient>
	<path class="st8" d="M34,21.1l-3.9,0C31.2,21.6,32.6,21.7,34,21.1L34,21.1z M34,21.1"/>
	<g>
		<g>
			<polygon class="st9" points="29.3,52.7 28,52.7 29.7,53.2 			"/>
			<polygon class="st11" points="29.7,53.2 29.7,53.2 30.8,54.8 30.4,53.5 			"/>
			<polygon class="st12" points="28.6,54.8 29.7,54 29.7,53.2 			"/>
			<polygon class="st11" points="31.5,52.7 30.1,52.7 29.7,53.2 			"/>
			<polygon class="st12" points="29.7,54 30.8,54.8 29.7,53.2 			"/>
			<polygon class="st11" points="29.7,53.2 29.1,53.5 28.6,54.8 29.7,53.2 			"/>
			<polygon class="st11" points="29.3,52.7 29.7,53.2 29.7,51.4 			"/>
			<polygon class="st12" points="29.7,51.4 29.7,53.2 30.1,52.7 			"/>
			<polygon class="st12" points="29.7,53.2 28,52.7 29.1,53.5 29.7,53.2 			"/>
			<polygon class="st12" points="29.7,53.2 30.4,53.5 31.5,52.7 29.7,53.2 			"/>
		</g>
		<g>
			<polygon class="st9" points="33.9,52.7 32.5,52.7 34.3,53.2 			"/>
			<polygon class="st11" points="34.3,53.2 34.3,53.2 35.4,54.8 34.9,53.5 			"/>
			<polygon class="st12" points="33.2,54.8 34.3,54 34.3,53.2 			"/>
			<polygon class="st11" points="36,52.7 34.7,52.7 34.3,53.2 			"/>
			<polygon class="st12" points="34.3,54 35.4,54.8 34.3,53.2 			"/>
			<polygon class="st11" points="34.3,53.2 33.6,53.5 33.2,54.8 34.3,53.2 			"/>
			<polygon class="st11" points="33.9,52.7 34.3,53.2 34.3,51.4 			"/>
			<polygon class="st12" points="34.3,51.4 34.3,53.2 34.7,52.7 			"/>
			<polygon class="st12" points="34.3,53.2 32.5,52.7 33.6,53.5 34.3,53.2 			"/>
			<polygon class="st12" points="34.3,53.2 34.9,53.5 36,52.7 34.3,53.2 			"/>
		</g>
	</g>
</g>
</svg>
